<svg width="32" height="32" viewBox="0 0 100 100" fill="none" xmlns="http://www.w3.org/2000/svg">
  <rect width="100" height="100" rx="18" fill="#714B67"/>
  <path d="M50 50 C55 45 68 32 74 26 C80 32 74 45 68 50 C62 55 55 55 50 50Z" fill="white"/>
  <path d="M50 50 C55 55 68 68 74 74 C80 68 74 55 68 50 C62 45 55 45 50 50Z" fill="white"/>
  <path d="M50 50 C45 55 32 68 26 74 C20 68 26 55 32 50 C38 45 45 45 50 50Z" fill="white"/>
  <path d="M50 50 C45 45 32 32 26 26 C20 32 26 45 32 50 C38 55 45 55 50 50Z" fill="white"/>
</svg>
